<?xml version="1.0" encoding="UTF-8"?>
<svg id="katman_1" data-name="katman 1" xmlns="http://www.w3.org/2000/svg" viewBox="0 0 1067.15 1039.56">
  <defs>
    <style>
      .cls-1 {
        fill: #fff;
        stroke-width: 0px;
      }
    </style>
  </defs>
  <path class="cls-1" d="m426.68,8.2C284.91,39.8,168.72,118.35,88.77,237.34-51.13,446.95-23.24,728.15,155.24,907.56c53.45,53.92,134.79,105.97,196.14,125.96,22.77,7.44,25.56,7.44,35.79.46,11.15-7.44,11.62-9.3,11.62-62.75v-54.84l-40.9,2.32c-47.87,2.32-85.06-6.04-107.37-25.1-7.9-6.51-23.24-28.82-33.93-49.27-17.66-34.39-30.68-50.2-66.93-82.27-12.08-10.69-12.55-11.15-4.18-17.2,19.99-14.87,60.42-.46,85.99,30.21,44.62,54.38,61.82,68.79,87.38,74.37,22.77,4.65,43.69,2.79,75.3-6.51,4.18-1.39,9.76-11.15,12.55-22.31,2.79-10.69,10.23-26.96,16.27-35.79l11.15-16.27-37.65-7.44c-79.01-16.27-127.82-44.62-159.89-92.96-29.75-44.62-39.51-83.2-39.97-155.24,0-67.86,7.44-95.75,36.72-133.86,13.01-16.73,14.41-21.85,10.69-31.61-6.97-16.73-5.11-87.38,2.32-108.76,6.04-15.8,9.3-18.59,21.85-19.99,20.92-2.32,59.96,11.15,99.46,33.46l33.93,19.52,29.75-6.97c42.3-9.76,169.18-9.3,207.3,0l28.82,7.44,26.96-16.27c35.79-21.38,81.34-38.11,104.11-38.11,18.13,0,18.13.46,25.56,24.17,7.9,27.42,9.3,77.15,2.32,100.86-3.72,13.94-2.79,18.13,7.44,31.61,50.66,66.93,56.24,178.01,13.48,269.11-28.82,59.96-89.7,101.79-171.51,117.13l-39.04,7.44,14.41,25.56h0c9.76,17.07,15.01,36.34,15.28,56l.99,73.67,1.61,89.85c.15,8.62,4.61,16.58,11.87,21.23h0c10.69,6.97,13.01,6.97,35.32-.93,37.18-12.55,100.86-46.94,135.72-73.44,207.3-155.24,274.22-433.65,159.42-665.11C943.98,158.79,816.63,54.21,670.69,15.17c-63.68-16.73-183.59-20.45-244.01-6.97Z"/>
</svg>